<svg width="40" height="41" viewBox="0 0 40 41" fill="none" xmlns="http://www.w3.org/2000/svg">
    <path d="M20 0.5C31.0457 0.5 40 9.4543 40 20.5C40 31.5457 31.0457 40.5 20 40.5C8.95431 40.5 0 31.5457 0 20.5C0 9.4543 8.95431 0.5 20 0.5ZM28.6339 14.1161C28.1783 13.6605 27.4585 13.6301 26.9676 14.025L26.8661 14.1161L16.75 24.2322L13.1339 20.6161C12.6457 20.128 11.8543 20.128 11.3661 20.6161C10.9105 21.0717 10.8801 21.7915 11.275 22.2824L11.3661 22.3839L15.8661 26.8839C16.3217 27.3395 17.0416 27.3699 17.5324 26.975L17.6339 26.8839L28.6339 15.8839C29.122 15.3957 29.122 14.6043 28.6339 14.1161Z" fill="#0E700E" fill-opacity="0.83" />
</svg>
