<svg width="12" height="13" viewBox="0 0 12 13" fill="none" xmlns="http://www.w3.org/2000/svg">
<path d="M0.0885911 0.715694L0.146447 0.646447C0.320013 0.47288 0.589437 0.453595 0.784306 0.588591L0.853553 0.646447L6 5.793L11.1464 0.646447C11.32 0.47288 11.5894 0.453595 11.7843 0.588591L11.8536 0.646447C12.0271 0.820013 12.0464 1.08944 11.9114 1.28431L11.8536 1.35355L6.707 6.5L11.8536 11.6464C12.0271 11.82 12.0464 12.0894 11.9114 12.2843L11.8536 12.3536C11.68 12.5271 11.4106 12.5464 11.2157 12.4114L11.1464 12.3536L6 7.207L0.853553 12.3536C0.679987 12.5271 0.410563 12.5464 0.215694 12.4114L0.146447 12.3536C-0.0271197 12.18 -0.046405 11.9106 0.0885911 11.7157L0.146447 11.6464L5.293 6.5L0.146447 1.35355C-0.0271197 1.17999 -0.046405 0.910563 0.0885911 0.715694L0.146447 0.646447L0.0885911 0.715694Z" fill="#242424"/>
</svg>